<svg xmlns="http://www.w3.org/2000/svg" width="35" height="24" viewBox="0 0 35 24" fill="none"
    stroke-width="1" stroke-linecap="round" stroke-linejoin="round"
    class="icon icon-tabler icons-tabler-outline icon-tabler-flame">
    <path fill="#ff9500" stroke="#945701"
        d="M6.5 9.5c2 -2.96 0 -7 -1 -8c0 3.038 -1.773 4.741 -3 6c-1.226 1.26 -2 3.24 -2 5a6 6 0 1 0 12 0c0 -1.532 -1.056 -3.94 -2 -5c-1.786 3 -2.791 3 -4 2z" />
    <path fill="#02920c" stroke="green"
        d="M23 8l-3.397 -3.44a2.104 2.104 0 0 1 0 -2.95a2.04 2.04 0 0 1 2.912 0l.485 .39l.485 -.39a2.04 2.04 0 0 1 2.912 0a2.104 2.104 0 0 1 0 2.95l-3.397 3.44z" />
    <path fill="#02920c" stroke="green"
        d="M23 12l-3.397 3.44a2.104 2.104 0 0 0 0 2.95a2.04 2.04 0 0 0 2.912 0l.485 -.39l.485 .39a2.04 2.04 0 0 0 2.912 0a2.104 2.104 0 0 0 0 -2.95l-3.397 -3.44z" />
    <path fill="#02920c" stroke="green"
        d="M25 10l3.44 -3.397a2.104 2.104 0 0 1 2.95 0a2.04 2.04 0 0 1 0 2.912l-.39 .485l.39 .485a2.04 2.04 0 0 1 0 2.912a2.104 2.104 0 0 1 -2.95 0l-3.44 -3.397z" />
    <path fill="#02920c" stroke="green"
        d="M21 10l-3.44 -3.397a2.104 2.104 0 0 0 -2.95 0a2.04 2.04 0 0 0 0 2.912l.39 .485l-.39 .485a2.04 2.04 0 0 0 0 2.912a2.104 2.104 0 0 0 2.95 0l3.44 -3.397z" />
</svg>